HIERARCHY
ROOT root     
{
	OFFSET 0.0000 0.0000 0.0000
	CHANNELS 6 Xposition Yposition Zposition Zrotation Yrotation Xrotation
	JOINT pelvis   
	{
		OFFSET 0.0000 0.0000 0.0000
		CHANNELS 3 Zrotation Yrotation Xrotation
		JOINT thorax   
		{
			OFFSET 0.0000 23.0750 -5.0000
			CHANNELS 3 Zrotation Yrotation Xrotation
			JOINT rclavicle
			{
				OFFSET 0.0000 28.0009 0.0000
				CHANNELS 3 Zrotation Yrotation Xrotation
				JOINT rhumerus 
				{
					OFFSET -18.5725 5.5939 0.0000
					CHANNELS 3 Zrotation Yrotation Xrotation
					JOINT rradius  
					{
						OFFSET -24.8459 0.0000 0.0000
						CHANNELS 3 Zrotation Yrotation Xrotation
						JOINT rhand    
						{
							OFFSET -24.5477 0.0000 0.0000
							CHANNELS 3 Zrotation Yrotation Xrotation
							End Site
							{
								OFFSET -8.1826 0.0000 0.0000
							}
						}
					}
				}
			}
			JOINT lclavicle
			{
				OFFSET 0.0000 28.0009 0.0000
				CHANNELS 3 Zrotation Yrotation Xrotation
				JOINT lhumerus 
				{
					OFFSET 18.5725 5.5939 0.0000
					CHANNELS 3 Zrotation Yrotation Xrotation
					JOINT lradius  
					{
						OFFSET 24.8459 0.0000 0.0000
						CHANNELS 3 Zrotation Yrotation Xrotation
						JOINT lhand    
						{
							OFFSET 24.5477 0.0000 0.0000
							CHANNELS 3 Zrotation Yrotation Xrotation
							End Site
							{
								OFFSET 8.1826 0.0000 0.0000
							}
						}
					}
				}
			}
			JOINT head     
			{
				OFFSET 0.0000 35.2030 0.0000
				CHANNELS 3 Zrotation Yrotation Xrotation
				End Site
				{
					OFFSET 0.0000 11.7343 0.0000
				}
			}
		}
		JOINT rfemur   
		{
			OFFSET -8.2817 0.0000 0.0000
			CHANNELS 3 Zrotation Yrotation Xrotation
			JOINT rtibia   
			{
				OFFSET 0.0000 -43.3627 0.0000
				CHANNELS 3 Zrotation Yrotation Xrotation
				JOINT rfoot    
				{
					OFFSET 0.0000 -38.2947 0.0000
					CHANNELS 3 Zrotation Yrotation Xrotation
					JOINT rtoes    
					{
						OFFSET 0.0000 0.0000 16.6054
						CHANNELS 3 Zrotation Yrotation Xrotation
						End Site
						{
							OFFSET 0.0000 0.0000 5.5351
						}
					}
				}
			}
		}
		JOINT lfemur   
		{
			OFFSET 8.2817 0.0000 0.0000
			CHANNELS 3 Zrotation Yrotation Xrotation
			JOINT ltibia   
			{
				OFFSET 0.0000 -43.3627 0.0000
				CHANNELS 3 Zrotation Yrotation Xrotation
				JOINT lfoot    
				{
					OFFSET 0.0000 -38.2947 0.0000
					CHANNELS 3 Zrotation Yrotation Xrotation
					JOINT ltoes    
					{
						OFFSET 0.0000 0.0000 16.6054
						CHANNELS 3 Zrotation Yrotation Xrotation
						End Site
						{
							OFFSET 0.0000 0.0000 5.5351
						}
					}
				}
			}
		}
	}
}
MOTION
Frames: 13
Frame Time: .0333333
159.52 75.279 16.668 -137.843 -81.5326 155.763 0 -0 0 -2.28129 7.00867 17.6741 24.4675 -7.22696 -1.15358e-05 46.3758 6.32324 9.75612 -0 87.9606 -0 -2.07873 3.87925 -0.0704005 -20.6883 18.9215 2.01751e-05 -57.9233 24.9575 9.90098 0 -63.6964 0 -2.51203 2.01656 -0.0441996 1.51109 -2.49107 -24.731 0.839949 -11.8183 -10.6999 -0 -0 53.0751 4.90128e-06 9.11758 -8.86327 -1.41651 4.38656e-06 -73.7471 -4.15528 12.0174 -63.5397 -0 -0 57.9434 -5.83825e-06 10.6912 -2.77203 -0.523103 3.30551e-07 -13.3956 
158.71 75.23 16.75 -136.857 -81.575 154.838 0 -0 0 -2.55817 6.96806 17.5783 24.61 -7.30161 -1.94138e-05 46.5535 6.12562 9.93207 -4.71267e-06 88.1193 -4.56169e-06 -1.90196 3.92753 -0.0651986 -20.703 18.8972 2.01953e-05 -57.8237 24.6345 9.70801 0 -63.9287 0 -2.40546 2.05486 -0.0430984 1.79291 -2.56487 -24.8009 0.772486 -11.7829 -10.7048 -0 -0 53.7796 6.61981e-07 8.91471 -7.63413 -1.19382 -9.77924e-07 -74.8492 -4.06412 11.8981 -63.3928 -0 -0 58.7711 1.778e-06 10.8852 -3.61078 -0.693914 -2.45272e-07 -13.6508 
157.92 75.192 16.835 -135.948 -81.6192 153.999 0 -0 0 -2.84986 6.93161 17.4996 24.7529 -7.36817 -5.18805e-06 46.7435 5.9048 10.0826 -4.33529e-06 88.3048 -4.46599e-06 -1.74766 3.99238 -0.060898 -20.7296 18.8389 0.000105606 -57.7238 24.3125 9.46574 -8.31113e-07 -64.2078 5.21442e-07 -2.26205 2.08757 -0.0411983 2.06846 -2.64281 -24.9257 0.714005 -11.7319 -10.7848 -0 -0 54.5413 6.2025e-06 8.64357 -6.34828 -0.963017 -7.0538e-06 -75.8457 -3.9723 11.7533 -63.2399 -0 -0 59.5481 -1.07761e-06 11.095 -4.3679 -0.855704 1.43853e-06 -13.9682 
157.16 75.164 16.92 -135.089 -81.6731 153.227 0 -0 0 -3.15169 6.90185 17.4402 24.8969 -7.43354 4.17822e-05 46.9378 5.679 10.2148 -0 88.4625 -0 -1.62379 4.06879 -0.0576995 -20.7457 18.7755 -3.76269e-05 -57.6308 23.9485 9.21651 5.29049e-07 -64.4962 -8.38542e-07 -2.08648 2.10609 -0.0383991 2.33601 -2.72092 -25.1058 0.670967 -11.6533 -10.9424 -0 -0 55.3542 5.61718e-06 8.31161 -5.00017 -0.729497 1.65207e-06 -76.7276 -3.88334 11.596 -63.0883 -0 -0 60.2737 -5.14143e-06 11.2994 -5.0551 -1.00858 1.21822e-06 -14.2984 
156.41 75.147 17.005 -134.288 -81.7344 152.525 0 -0 0 -3.46561 6.87714 17.3964 25.0436 -7.49258 9.60804e-05 47.1392 5.45178 10.3304 -6.03078e-06 88.5479 -5.87985e-06 -1.53093 4.1547 -0.0555015 -20.7551 18.6931 -7.47238e-05 -57.5431 23.5613 8.95546 7.59743e-07 -64.801 -1.19716e-06 -1.89103 2.11106 -0.0348002 2.59411 -2.79267 -25.3319 0.642048 -11.5482 -11.1804 -0 -0 56.2234 -4.41118e-06 7.93289 -3.5617 -0.496 -2.66013e-06 -77.5196 -3.80486 11.4366 -62.9395 -0 -0 60.9413 2.04255e-06 11.4814 -5.68845 -1.15339 -4.80574e-06 -14.6048 
155.69 75.139 17.089 -133.558 -81.7975 151.911 0 -0 0 -3.79051 6.85464 17.3662 25.1915 -7.5453 -6.90127e-05 47.3468 5.23292 10.4358 -2.45293e-05 88.6118 -2.46249e-05 -1.46824 4.24658 -0.0544013 -20.7555 18.594 -0.000178779 -57.4582 23.1514 8.69005 0 -65.1118 0 -1.68634 2.10252 -0.0309013 2.84057 -2.85188 -25.5965 0.627091 -11.414 -11.4985 -0 -0 57.1409 -2.59239e-06 7.52296 -2.01554 -0.266099 6.46216e-06 -78.2136 -3.74329 11.2859 -62.7902 -0 -0 61.5482 3.31837e-06 11.6272 -6.28678 -1.29085 -1.46771e-05 -14.8615 
154.99 75.142 17.17 -132.865 -81.8624 151.345 0 -0 0 -4.11835 6.83046 17.3475 25.3357 -7.59361 4.30646e-05 47.5605 5.03415 10.5384 -2.48525e-05 88.6126 -2.48903e-05 -1.43286 4.33916 -0.0542986 -20.7451 18.4816 -8.45672e-05 -57.3756 22.7162 8.4318 7.84436e-07 -65.4228 -1.22134e-06 -1.48245 2.08149 -0.0268991 3.07041 -2.89445 -25.8835 0.63173 -11.2495 -11.8917 -0 -0 58.1013 -3.07268e-07 7.09447 -0.3582 -0.0446003 -4.63064e-07 -78.7663 -3.70077 11.1579 -62.6421 -0 -0 62.0903 3.09137e-05 11.7263 -6.86789 -1.4219 1.16345e-05 -15.0572 
154.31 75.153 17.25 -132.255 -81.919 150.871 0 -0 0 -4.45553 6.79937 17.3337 25.4753 -7.62971 4.44075e-05 47.7847 4.85171 10.6397 -2.2906e-05 88.547 -2.30623e-05 -1.41772 4.43089 -0.0548001 -20.7305 18.3442 -7.71575e-05 -57.2882 22.2827 8.16707 0 -65.7454 0 -1.29093 2.05335 -0.023101 3.2829 -2.91526 -26.1801 0.645879 -11.0632 -12.3579 -0 -0 59.1012 2.89056e-07 6.66498 1.40641 0.164298 -1.89933e-06 -79.1411 -3.68647 11.0566 -62.4896 -0 -0 62.5643 -1.04929e-05 11.7808 -7.44419 -1.5478 4.2141e-06 -15.1927 
153.65 75.172 17.328 -131.69 -81.9797 150.453 0 -0 0 -4.79429 6.75681 17.322 25.6066 -7.65759 3.28866e-05 48.0168 4.6967 10.7474 -0 88.3825 -0 -1.4175 4.51735 -0.0559003 -20.7095 18.1926 -0.000128282 -57.1987 21.8379 7.90644 5.73665e-07 -66.0692 -8.82217e-07 -1.11679 2.02026 -0.0196993 3.47398 -2.91238 -26.4716 0.672539 -10.8573 -12.8908 -0 -0 60.132 4.44306e-06 6.23963 3.25228 0.355396 -3.38687e-06 -79.261 -3.6995 10.9892 -62.329 -0 -0 62.9717 1.52971e-05 11.7895 -8.02463 -1.66901 -5.59642e-06 -15.2751 
153 75.198 17.405 -131.196 -82.0371 150.112 0 -0 0 -5.13581 6.69815 17.3084 25.7269 -7.67286 3.69252e-05 48.2618 4.56458 10.863 -4.6367e-06 88.185 -4.78759e-06 -1.42532 4.59704 -0.0572012 -20.689 18.0162 -0.000165925 -57.1031 21.4022 7.64089 -8.92133e-07 -66.3969 5.8376e-07 -0.965917 1.98818 -0.0168003 3.6427 -2.88506 -26.7459 0.704482 -10.6399 -13.4833 -0 -0 61.1916 1.25378e-06 5.82067 5.13513 0.522798 -8.22859e-06 -79.0516 -3.74337 10.9564 -62.1576 -0 -0 63.3132 -2.50438e-05 11.7639 -8.61025 -1.78574 -1.11218e-05 -15.3189 
152.38 75.231 17.479 -130.687 -82.0864 149.757 0 -0 0 -5.45849 6.61947 17.3018 25.8334 -7.69215 2.15805e-05 48.5106 4.48018 11.0001 -2.88423e-06 87.8568 -2.77752e-06 -1.43957 4.66421 -0.0585994 -20.6551 17.8608 5.17822e-05 -57.007 20.9177 7.41389 -9.01243e-07 -66.6917 5.93036e-07 -0.835293 1.95991 -0.0142998 3.78343 -2.83546 -26.9972 0.756341 -10.4107 -14.1205 -0 -0 62.268 -4.72233e-06 5.38897 6.98424 0.657188 1.77113e-06 -78.4313 -3.80229 10.961 -61.9711 -0 -0 63.6001 3.5108e-07 11.7074 -9.19961 -1.89754 -2.80749e-08 -15.3437 
151.76 75.27 17.553 -130.268 -82.1321 149.492 0 -0 0 -5.7803 6.5192 17.2872 25.9252 -7.69605 1.51803e-05 48.7694 4.4114 11.1444 -1.34118e-05 87.4336 -1.34496e-05 -1.45195 4.72316 -0.0598975 -20.6294 17.6751 0.000138561 -56.9012 20.4582 7.17129 6.02982e-07 -66.999 -9.11023e-07 -0.730294 1.94376 -0.0124002 3.9017 -2.76564 -27.2142 0.805593 -10.1858 -14.8077 -0 -0 63.3675 1.68492e-06 4.93639 8.73177 0.751202 -3.1028e-06 -77.3639 -3.88964 10.9937 -61.7698 -0 -0 63.8305 -2.708e-05 11.6383 -9.78314 -2.00432 -8.56228e-06 -15.3648 
151.17 75.314 17.626 -129.846 -82.1768 149.222 0 -0 0 -6.08136 6.39631 17.277 26.0017 -7.70044 -1.66974e-05 49.0298 4.37675 11.3046 -1.10182e-05 86.9381 -1.11335e-05 -1.46306 4.77039 -0.0608986 -20.5999 17.5045 0.000135083 -56.7939 19.9602 6.95504 0 -67.2777 0 -0.642797 1.94159 -0.0108999 3.99453 -2.68064 -27.398 0.866021 -9.96739 -15.5303 -0 -0 64.4849 -4.64182e-06 4.42819 10.2949 0.792903 2.46521e-06 -75.8382 -3.98701 11.0516 -61.5513 -0 -0 64.0167 -3.34853e-05 11.5637 -10.352 -2.10557 -8.50888e-06 -15.3972 
